<svg width="584" height="338" viewBox="0 0 584 338" fill="none" xmlns="http://www.w3.org/2000/svg">
<g clip-path="url(#clip0_199_1018)">
<rect width="584" height="337" transform="translate(0 0.279297)" fill="white"/>
<path d="M61.6291 26.6133L57.8291 33.9663H60.4131V31.5533H62.5791V33.9663H64.3461V35.9613H62.5791V38.2793H60.4131V35.9613H55.2261V34.2133L59.2541 26.6133H61.6291ZM69.9785 38.4693C67.2425 38.4693 65.3805 35.9993 65.3805 32.4463C65.3805 28.8933 67.2425 26.4233 69.9785 26.4233C72.7145 26.4233 74.5765 28.8933 74.5765 32.4463C74.5765 35.9993 72.7145 38.4693 69.9785 38.4693ZM69.9785 28.5893C68.4015 28.5893 67.7555 30.2803 67.7555 32.4463C67.7555 34.6123 68.4015 36.3033 69.9785 36.3033C71.5365 36.3033 72.2015 34.6123 72.2015 32.4463C72.2015 30.2803 71.5365 28.5893 69.9785 28.5893ZM80.3876 38.4693C77.6516 38.4693 75.7896 35.9993 75.7896 32.4463C75.7896 28.8933 77.6516 26.4233 80.3876 26.4233C83.1236 26.4233 84.9856 28.8933 84.9856 32.4463C84.9856 35.9993 83.1236 38.4693 80.3876 38.4693ZM80.3876 28.5893C78.8106 28.5893 78.1646 30.2803 78.1646 32.4463C78.1646 34.6123 78.8106 36.3033 80.3876 36.3033C81.9456 36.3033 82.6106 34.6123 82.6106 32.4463C82.6106 30.2803 81.9456 28.5893 80.3876 28.5893ZM90.7968 38.4693C88.0608 38.4693 86.1988 35.9993 86.1988 32.4463C86.1988 28.8933 88.0608 26.4233 90.7968 26.4233C93.5328 26.4233 95.3948 28.8933 95.3948 32.4463C95.3948 35.9993 93.5328 38.4693 90.7968 38.4693ZM90.7968 28.5893C89.2198 28.5893 88.5738 30.2803 88.5738 32.4463C88.5738 34.6123 89.2198 36.3033 90.7968 36.3033C92.3548 36.3033 93.0198 34.6123 93.0198 32.4463C93.0198 30.2803 92.3548 28.5893 90.7968 28.5893Z" fill="black"/>
<path d="M59.3644 93.2823V91.4013H60.0294C61.0174 91.4013 61.7774 90.9073 61.7774 89.9383C61.7774 89.1213 61.2074 88.4943 60.2574 88.4943C59.1934 88.4943 58.6234 89.1973 58.5474 90.0903H56.1914C56.4194 88.0193 57.9394 86.4233 60.2764 86.4233C62.6514 86.4233 64.0764 87.8293 64.0764 89.8243C64.0764 90.9453 63.4874 91.9523 62.6514 92.3513C63.7344 92.8263 64.2664 93.8333 64.2664 94.8973C64.2664 96.9303 62.7654 98.4693 60.2764 98.4693C57.7684 98.4693 56.0964 96.9303 55.9634 94.6693H58.3574C58.4714 95.6953 59.0984 96.3983 60.2574 96.3983C61.2454 96.3983 61.9484 95.7903 61.9484 94.8593C61.9484 93.8713 61.1884 93.2823 60.1054 93.2823H59.3644ZM69.9785 98.4693C67.2425 98.4693 65.3805 95.9993 65.3805 92.4463C65.3805 88.8933 67.2425 86.4233 69.9785 86.4233C72.7145 86.4233 74.5765 88.8933 74.5765 92.4463C74.5765 95.9993 72.7145 98.4693 69.9785 98.4693ZM69.9785 88.5893C68.4015 88.5893 67.7555 90.2803 67.7555 92.4463C67.7555 94.6123 68.4015 96.3033 69.9785 96.3033C71.5365 96.3033 72.2015 94.6123 72.2015 92.4463C72.2015 90.2803 71.5365 88.5893 69.9785 88.5893ZM80.3876 98.4693C77.6516 98.4693 75.7896 95.9993 75.7896 92.4463C75.7896 88.8933 77.6516 86.4233 80.3876 86.4233C83.1236 86.4233 84.9856 88.8933 84.9856 92.4463C84.9856 95.9993 83.1236 98.4693 80.3876 98.4693ZM80.3876 88.5893C78.8106 88.5893 78.1646 90.2803 78.1646 92.4463C78.1646 94.6123 78.8106 96.3033 80.3876 96.3033C81.9456 96.3033 82.6106 94.6123 82.6106 92.4463C82.6106 90.2803 81.9456 88.5893 80.3876 88.5893ZM90.7968 98.4693C88.0608 98.4693 86.1988 95.9993 86.1988 92.4463C86.1988 88.8933 88.0608 86.4233 90.7968 86.4233C93.5328 86.4233 95.3948 88.8933 95.3948 92.4463C95.3948 95.9993 93.5328 98.4693 90.7968 98.4693ZM90.7968 88.5893C89.2198 88.5893 88.5738 90.2803 88.5738 92.4463C88.5738 94.6123 89.2198 96.3033 90.7968 96.3033C92.3548 96.3033 93.0198 94.6123 93.0198 92.4463C93.0198 90.2803 92.3548 88.5893 90.7968 88.5893Z" fill="black"/>
<path d="M61.6847 149.995C61.6847 149.178 61.1147 148.589 60.2027 148.589C59.2147 148.589 58.7017 149.292 58.6447 150.204H56.1367C56.3647 148.038 57.8847 146.423 60.1837 146.423C62.6347 146.423 64.0977 147.791 64.0977 149.9C64.0977 151.363 62.9767 152.503 61.7797 153.757L59.5377 156.17H64.2307V158.279H56.1557V156.702L59.8607 152.807C60.8867 151.686 61.6847 150.869 61.6847 149.995ZM69.9785 158.469C67.2425 158.469 65.3805 155.999 65.3805 152.446C65.3805 148.893 67.2425 146.423 69.9785 146.423C72.7145 146.423 74.5765 148.893 74.5765 152.446C74.5765 155.999 72.7145 158.469 69.9785 158.469ZM69.9785 148.589C68.4015 148.589 67.7555 150.28 67.7555 152.446C67.7555 154.612 68.4015 156.303 69.9785 156.303C71.5365 156.303 72.2015 154.612 72.2015 152.446C72.2015 150.28 71.5365 148.589 69.9785 148.589ZM80.3876 158.469C77.6516 158.469 75.7896 155.999 75.7896 152.446C75.7896 148.893 77.6516 146.423 80.3876 146.423C83.1236 146.423 84.9856 148.893 84.9856 152.446C84.9856 155.999 83.1236 158.469 80.3876 158.469ZM80.3876 148.589C78.8106 148.589 78.1646 150.28 78.1646 152.446C78.1646 154.612 78.8106 156.303 80.3876 156.303C81.9456 156.303 82.6106 154.612 82.6106 152.446C82.6106 150.28 81.9456 148.589 80.3876 148.589ZM90.7968 158.469C88.0608 158.469 86.1988 155.999 86.1988 152.446C86.1988 148.893 88.0608 146.423 90.7968 146.423C93.5328 146.423 95.3948 148.893 95.3948 152.446C95.3948 155.999 93.5328 158.469 90.7968 158.469ZM90.7968 148.589C89.2198 148.589 88.5738 150.28 88.5738 152.446C88.5738 154.612 89.2198 156.303 90.7968 156.303C92.3548 156.303 93.0198 154.612 93.0198 152.446C93.0198 150.28 92.3548 148.589 90.7968 148.589Z" fill="black"/>
<path d="M63.6377 206.613V218.279H61.2627V209.387L58.5457 210.736V208.361L62.0987 206.613H63.6377ZM69.9785 218.469C67.2425 218.469 65.3805 215.999 65.3805 212.446C65.3805 208.893 67.2425 206.423 69.9785 206.423C72.7145 206.423 74.5765 208.893 74.5765 212.446C74.5765 215.999 72.7145 218.469 69.9785 218.469ZM69.9785 208.589C68.4015 208.589 67.7555 210.28 67.7555 212.446C67.7555 214.612 68.4015 216.303 69.9785 216.303C71.5365 216.303 72.2015 214.612 72.2015 212.446C72.2015 210.28 71.5365 208.589 69.9785 208.589ZM80.3876 218.469C77.6516 218.469 75.7896 215.999 75.7896 212.446C75.7896 208.893 77.6516 206.423 80.3876 206.423C83.1236 206.423 84.9856 208.893 84.9856 212.446C84.9856 215.999 83.1236 218.469 80.3876 218.469ZM80.3876 208.589C78.8106 208.589 78.1646 210.28 78.1646 212.446C78.1646 214.612 78.8106 216.303 80.3876 216.303C81.9456 216.303 82.6106 214.612 82.6106 212.446C82.6106 210.28 81.9456 208.589 80.3876 208.589ZM90.7968 218.469C88.0608 218.469 86.1988 215.999 86.1988 212.446C86.1988 208.893 88.0608 206.423 90.7968 206.423C93.5328 206.423 95.3948 208.893 95.3948 212.446C95.3948 215.999 93.5328 218.469 90.7968 218.469ZM90.7968 208.589C89.2198 208.589 88.5738 210.28 88.5738 212.446C88.5738 214.612 89.2198 216.303 90.7968 216.303C92.3548 216.303 93.0198 214.612 93.0198 212.446C93.0198 210.28 92.3548 208.589 90.7968 208.589Z" fill="black"/>
<path d="M90.7968 278.469C88.0608 278.469 86.1988 275.999 86.1988 272.446C86.1988 268.893 88.0608 266.423 90.7968 266.423C93.5328 266.423 95.3948 268.893 95.3948 272.446C95.3948 275.999 93.5328 278.469 90.7968 278.469ZM90.7968 268.589C89.2198 268.589 88.5738 270.28 88.5738 272.446C88.5738 274.612 89.2198 276.303 90.7968 276.303C92.3548 276.303 93.0198 274.612 93.0198 272.446C93.0198 270.28 92.3548 268.589 90.7968 268.589Z" fill="black"/>
<path d="M134.846 296.05C134.846 295.233 134.276 294.644 133.364 294.644C132.376 294.644 131.863 295.347 131.806 296.259H129.298C129.526 294.093 131.046 292.478 133.345 292.478C135.796 292.478 137.259 293.846 137.259 295.955C137.259 297.418 136.138 298.558 134.941 299.812L132.699 302.225H137.392V304.334H129.317V302.757L133.022 298.862C134.048 297.741 134.846 296.924 134.846 296.05Z" fill="black"/>
<path d="M167.253 295.613H164.897C164.669 294.91 164.175 294.473 163.358 294.473C161.971 294.473 161.097 296.107 161.097 297.741V297.912C161.477 297.19 162.408 296.677 163.548 296.677C165.904 296.677 167.348 298.425 167.348 300.515C167.348 302.719 165.828 304.524 163.225 304.524C161.762 304.524 160.47 303.84 159.691 302.415C159.102 301.389 158.874 300.249 158.874 298.748C158.874 295.119 160.546 292.478 163.339 292.478C165.543 292.478 166.835 293.656 167.253 295.613ZM161.306 300.572C161.306 301.731 162.085 302.529 163.244 302.529C164.365 302.529 165.163 301.731 165.163 300.572C165.163 299.356 164.365 298.558 163.244 298.558C162.085 298.558 161.306 299.356 161.306 300.572Z" fill="black"/>
<path d="M189.728 292.668V304.334H187.353V295.442L184.636 296.791V294.416L188.189 292.668H189.728ZM196.068 304.524C193.332 304.524 191.47 302.054 191.47 298.501C191.47 294.948 193.332 292.478 196.068 292.478C198.804 292.478 200.666 294.948 200.666 298.501C200.666 302.054 198.804 304.524 196.068 304.524ZM196.068 294.644C194.491 294.644 193.845 296.335 193.845 298.501C193.845 300.667 194.491 302.358 196.068 302.358C197.626 302.358 198.291 300.667 198.291 298.501C198.291 296.335 197.626 294.644 196.068 294.644Z" fill="black"/>
<path d="M219.25 292.668V304.334H216.875V295.442L214.158 296.791V294.416L217.711 292.668H219.25ZM227.187 292.668L223.387 300.021H225.971V297.608H228.137V300.021H229.904V302.016H228.137V304.334H225.971V302.016H220.784V300.268L224.812 292.668H227.187Z" fill="black"/>
<path d="M248.698 292.668V304.334H246.323V295.442L243.606 296.791V294.416L247.159 292.668H248.698ZM254.583 302.605C255.628 302.605 256.426 301.978 256.426 300.952C256.426 299.907 255.628 299.299 254.583 299.299C253.519 299.299 252.721 299.907 252.721 300.952C252.721 301.978 253.519 302.605 254.583 302.605ZM254.583 297.323C255.438 297.323 256.16 296.772 256.16 295.86C256.16 294.91 255.438 294.359 254.583 294.359C253.709 294.359 252.987 294.91 252.987 295.86C252.987 296.772 253.709 297.323 254.583 297.323ZM254.583 304.524C252.246 304.524 250.384 303.27 250.384 301.142C250.384 299.66 251.315 298.653 252.417 298.349C251.448 297.931 250.745 297 250.745 295.765C250.745 293.637 252.531 292.478 254.583 292.478C256.616 292.478 258.402 293.637 258.402 295.765C258.402 297 257.699 297.931 256.73 298.349C257.832 298.653 258.763 299.66 258.763 301.142C258.763 303.27 256.901 304.524 254.583 304.524Z" fill="black"/>
<path d="M276.97 296.05C276.97 295.233 276.4 294.644 275.488 294.644C274.5 294.644 273.987 295.347 273.93 296.259H271.422C271.65 294.093 273.17 292.478 275.469 292.478C277.92 292.478 279.383 293.846 279.383 295.955C279.383 297.418 278.262 298.558 277.065 299.812L274.823 302.225H279.516V304.334H271.441V302.757L275.146 298.862C276.172 297.741 276.97 296.924 276.97 296.05ZM286.118 296.05C286.118 295.233 285.548 294.644 284.636 294.644C283.648 294.644 283.135 295.347 283.078 296.259H280.57C280.798 294.093 282.318 292.478 284.617 292.478C287.068 292.478 288.531 293.846 288.531 295.955C288.531 297.418 287.41 298.558 286.213 299.812L283.971 302.225H288.664V304.334H280.589V302.757L284.294 298.862C285.32 297.741 286.118 296.924 286.118 296.05Z" fill="black"/>
<path d="M305.488 296.05C305.488 295.233 304.918 294.644 304.006 294.644C303.018 294.644 302.505 295.347 302.448 296.259H299.94C300.168 294.093 301.688 292.478 303.987 292.478C306.438 292.478 307.901 293.846 307.901 295.955C307.901 297.418 306.78 298.558 305.583 299.812L303.341 302.225H308.034V304.334H299.959V302.757L303.664 298.862C304.69 297.741 305.488 296.924 305.488 296.05ZM317.581 295.613H315.225C314.997 294.91 314.503 294.473 313.686 294.473C312.299 294.473 311.425 296.107 311.425 297.741V297.912C311.805 297.19 312.736 296.677 313.876 296.677C316.232 296.677 317.676 298.425 317.676 300.515C317.676 302.719 316.156 304.524 313.553 304.524C312.09 304.524 310.798 303.84 310.019 302.415C309.43 301.389 309.202 300.249 309.202 298.748C309.202 295.119 310.874 292.478 313.667 292.478C315.871 292.478 317.163 293.656 317.581 295.613ZM311.634 300.572C311.634 301.731 312.413 302.529 313.572 302.529C314.693 302.529 315.491 301.731 315.491 300.572C315.491 299.356 314.693 298.558 313.572 298.558C312.413 298.558 311.634 299.356 311.634 300.572Z" fill="black"/>
<path d="M331.546 299.337V297.456H332.211C333.199 297.456 333.959 296.962 333.959 295.993C333.959 295.176 333.389 294.549 332.439 294.549C331.375 294.549 330.805 295.252 330.729 296.145H328.373C328.601 294.074 330.121 292.478 332.458 292.478C334.833 292.478 336.258 293.884 336.258 295.879C336.258 297 335.669 298.007 334.833 298.406C335.916 298.881 336.448 299.888 336.448 300.952C336.448 302.985 334.947 304.524 332.458 304.524C329.95 304.524 328.278 302.985 328.145 300.724H330.539C330.653 301.75 331.28 302.453 332.439 302.453C333.427 302.453 334.13 301.845 334.13 300.914C334.13 299.926 333.37 299.337 332.287 299.337H331.546ZM342.16 304.524C339.424 304.524 337.562 302.054 337.562 298.501C337.562 294.948 339.424 292.478 342.16 292.478C344.896 292.478 346.758 294.948 346.758 298.501C346.758 302.054 344.896 304.524 342.16 304.524ZM342.16 294.644C340.583 294.644 339.937 296.335 339.937 298.501C339.937 300.667 340.583 302.358 342.16 302.358C343.718 302.358 344.383 300.667 344.383 298.501C344.383 296.335 343.718 294.644 342.16 294.644Z" fill="black"/>
<path d="M362 299.337V297.456H362.665C363.653 297.456 364.413 296.962 364.413 295.993C364.413 295.176 363.843 294.549 362.893 294.549C361.829 294.549 361.259 295.252 361.183 296.145H358.827C359.055 294.074 360.575 292.478 362.912 292.478C365.287 292.478 366.712 293.884 366.712 295.879C366.712 297 366.123 298.007 365.287 298.406C366.37 298.881 366.902 299.888 366.902 300.952C366.902 302.985 365.401 304.524 362.912 304.524C360.404 304.524 358.732 302.985 358.599 300.724H360.993C361.107 301.75 361.734 302.453 362.893 302.453C363.881 302.453 364.584 301.845 364.584 300.914C364.584 299.926 363.824 299.337 362.741 299.337H362ZM374.21 292.668L370.41 300.021H372.994V297.608H375.16V300.021H376.927V302.016H375.16V304.334H372.994V302.016H367.807V300.268L371.835 292.668H374.21Z" fill="black"/>
<path d="M34.582 207.841V209.929L24.958 213.577H34.582V216.457H19.846V212.809L30.238 208.873L19.846 204.961V201.361H34.582V204.265H24.958L34.582 207.841ZM31.078 192.119V189.359C33.358 189.743 34.822 191.423 34.822 194.111C34.822 197.231 32.542 199.319 29.23 199.319C25.99 199.319 23.614 197.159 23.614 194.159C23.614 191.015 25.798 189.287 28.942 189.287H29.854V196.439C31.462 196.343 32.422 195.431 32.422 194.111C32.422 193.103 31.99 192.359 31.078 192.119ZM26.038 194.135C26.038 195.287 26.734 196.103 28.054 196.367V192.215C26.926 192.239 26.038 192.911 26.038 194.135ZM34.582 180.416H33.694C34.27 180.896 34.822 181.952 34.822 183.104C34.822 186.224 32.302 187.976 29.23 187.976C26.158 187.976 23.614 186.224 23.614 183.104C23.614 181.952 24.166 180.896 24.742 180.416H18.982V177.416H34.582V180.416ZM30.982 180.416H27.454C26.734 180.752 26.206 181.568 26.206 182.432C26.206 184.04 27.502 185 29.23 185C30.934 185 32.23 184.04 32.23 182.432C32.23 181.544 31.726 180.752 30.982 180.416ZM23.854 171.882H34.582V174.858H23.854V171.882ZM20.758 171.618C21.766 171.618 22.462 172.434 22.462 173.37C22.462 174.33 21.766 175.146 20.758 175.146C19.774 175.146 19.054 174.33 19.054 173.37C19.054 172.434 19.774 171.618 20.758 171.618ZM34.582 160.472V163.328H34.006C34.366 163.688 34.774 164.768 34.774 165.944C34.774 168.104 33.526 169.928 31.294 169.928C29.254 169.928 27.862 168.104 27.862 165.776C27.862 164.84 28.174 163.76 28.486 163.328H27.694C26.782 163.328 26.038 163.88 26.038 165.08C26.038 165.92 26.422 166.424 27.046 166.664V169.496C25.102 169.184 23.614 167.432 23.614 164.984C23.614 162.128 25.174 160.472 27.742 160.472H34.582ZM31.654 163.328H30.886C30.31 163.592 29.95 164.408 29.95 165.272C29.95 166.208 30.358 167.168 31.27 167.168C32.206 167.168 32.59 166.208 32.59 165.272C32.59 164.408 32.23 163.592 31.654 163.328ZM34.582 158.054H23.854V155.078H24.838C24.166 154.502 23.614 153.446 23.614 152.198C23.614 149.774 25.198 148.406 27.574 148.406H34.582V151.382H28.198C27.07 151.382 26.302 151.958 26.302 153.134C26.302 154.046 26.854 154.838 27.79 155.078H34.582V158.054ZM29.302 130.938V133.746H26.854L26.854 127.938H28.15C32.23 127.938 34.822 130.626 34.822 134.346C34.822 138.45 31.726 141.45 27.214 141.45C22.702 141.45 19.606 138.426 19.606 134.418C19.606 130.866 21.646 128.73 24.598 128.178V131.274C23.206 131.802 22.342 132.714 22.342 134.418C22.342 136.842 24.382 138.33 27.214 138.33C30.07 138.33 32.11 136.818 32.11 134.346C32.11 132.45 30.982 131.274 29.302 130.938ZM31.078 119.205V116.445C33.358 116.829 34.822 118.509 34.822 121.197C34.822 124.317 32.542 126.405 29.23 126.405C25.99 126.405 23.614 124.245 23.614 121.245C23.614 118.101 25.798 116.373 28.942 116.373H29.854V123.525C31.462 123.429 32.422 122.517 32.422 121.197C32.422 120.189 31.99 119.445 31.078 119.205ZM26.038 121.221C26.038 122.373 26.734 123.189 28.054 123.453V119.301C26.926 119.325 26.038 119.997 26.038 121.221ZM34.582 114.483H23.854V111.507H24.838C24.166 110.931 23.614 109.875 23.614 108.627C23.614 106.203 25.198 104.835 27.574 104.835H34.582V107.811H28.198C27.07 107.811 26.302 108.387 26.302 109.563C26.302 110.475 26.854 111.267 27.79 111.507H34.582V114.483ZM31.078 95.8381V93.0781C33.358 93.4621 34.822 95.1421 34.822 97.8301C34.822 100.95 32.542 103.038 29.23 103.038C25.99 103.038 23.614 100.878 23.614 97.8781C23.614 94.7341 25.798 93.0061 28.942 93.0061H29.854V100.158C31.462 100.062 32.422 99.1501 32.422 97.8301C32.422 96.8221 31.99 96.0781 31.078 95.8381ZM26.038 97.8541C26.038 99.0061 26.734 99.8221 28.054 100.086V95.9341C26.926 95.9581 26.038 96.6301 26.038 97.8541ZM27.214 86.6302C22.702 86.6302 19.606 83.7022 19.606 79.7662C19.606 76.2862 21.646 74.1502 24.598 73.5982V76.6462C23.254 77.1502 22.342 78.0622 22.342 79.7662C22.342 82.1182 24.406 83.5102 27.214 83.5102C29.998 83.5102 32.086 82.1182 32.086 79.7662C32.086 78.0622 31.174 77.1502 29.806 76.6462V73.5982C32.782 74.1502 34.822 76.2862 34.822 79.7662C34.822 83.7022 31.726 86.6302 27.214 86.6302ZM29.23 61.7527C32.518 61.7527 34.822 63.8887 34.822 67.0087C34.822 70.1287 32.518 72.2647 29.23 72.2647C25.918 72.2647 23.614 70.1287 23.614 67.0087C23.614 63.8887 25.918 61.7527 29.23 61.7527ZM29.23 64.7047C27.43 64.7047 26.134 65.5207 26.134 67.0087C26.134 68.4967 27.43 69.3127 29.23 69.3127C31.006 69.3127 32.302 68.4967 32.302 67.0087C32.302 65.5207 31.006 64.7047 29.23 64.7047ZM23.854 50.3465H34.582V53.3225H33.598C34.27 53.9225 34.822 54.9545 34.822 56.2025C34.822 58.6025 33.238 59.9705 30.862 59.9705H23.854V56.9945H30.262C31.39 56.9945 32.158 56.4425 32.158 55.2665C32.158 54.3545 31.606 53.5625 30.67 53.3465H23.854V50.3465ZM34.582 47.7802H23.854V44.8042H24.838C24.166 44.2282 23.614 43.1722 23.614 41.9242C23.614 39.5002 25.198 38.1322 27.574 38.1322H34.582V41.1082H28.198C27.07 41.1082 26.302 41.6842 26.302 42.8602C26.302 43.7722 26.854 44.5642 27.79 44.8042H34.582L34.582 47.7802ZM31.342 35.015H26.254V36.647H23.854V35.015H20.95V32.063H23.854V29.711H26.254V32.063H30.958C31.798 32.063 32.182 31.607 32.182 30.839C32.182 30.383 32.038 29.879 31.822 29.543H34.462C34.678 29.951 34.798 30.671 34.798 31.463C34.798 33.647 33.718 35.015 31.342 35.015Z" fill="black"/>
<path d="M158.979 326.783H157.371V332.279H154.323V317.543H160.395C163.491 317.543 165.555 319.199 165.555 322.223C165.555 324.575 164.259 326.063 162.195 326.567L166.083 332.279H162.627L158.979 326.783ZM157.371 320.159V324.263H160.203C161.739 324.263 162.531 323.447 162.531 322.223C162.531 320.975 161.739 320.159 160.203 320.159H157.371ZM174.138 328.775H176.898C176.514 331.055 174.834 332.519 172.146 332.519C169.026 332.519 166.938 330.239 166.938 326.927C166.938 323.687 169.098 321.311 172.098 321.311C175.242 321.311 176.97 323.495 176.97 326.639V327.551H169.818C169.914 329.159 170.826 330.119 172.146 330.119C173.154 330.119 173.898 329.687 174.138 328.775ZM172.122 323.735C170.97 323.735 170.154 324.431 169.89 325.751H174.042C174.018 324.623 173.346 323.735 172.122 323.735ZM187.691 332.279H184.835V331.703C184.475 332.063 183.395 332.471 182.219 332.471C180.059 332.471 178.235 331.223 178.235 328.991C178.235 326.951 180.059 325.559 182.387 325.559C183.323 325.559 184.403 325.871 184.835 326.183V325.391C184.835 324.479 184.283 323.735 183.083 323.735C182.243 323.735 181.739 324.119 181.499 324.743H178.667C178.979 322.799 180.731 321.311 183.179 321.311C186.035 321.311 187.691 322.871 187.691 325.439V332.279ZM184.835 329.351V328.583C184.571 328.007 183.755 327.647 182.891 327.647C181.955 327.647 180.995 328.055 180.995 328.967C180.995 329.903 181.955 330.287 182.891 330.287C183.755 330.287 184.571 329.927 184.835 329.351ZM196.998 332.279V331.391C196.518 331.967 195.462 332.519 194.31 332.519C191.19 332.519 189.438 329.999 189.438 326.927C189.438 323.855 191.19 321.311 194.31 321.311C195.462 321.311 196.518 321.863 196.998 322.439V316.679H199.998V332.279H196.998ZM196.998 328.679V325.151C196.662 324.431 195.846 323.903 194.982 323.903C193.374 323.903 192.414 325.199 192.414 326.927C192.414 328.631 193.374 329.927 194.982 329.927C195.87 329.927 196.662 329.423 196.998 328.679ZM210.809 329.567H212.849C215.657 329.567 217.193 327.767 217.193 324.911C217.193 322.031 215.657 320.231 212.849 320.231H210.809V329.567ZM207.761 332.279V317.543H212.969C217.433 317.543 220.241 320.423 220.241 324.911C220.241 329.399 217.433 332.279 212.969 332.279H207.761ZM228.888 328.775H231.648C231.264 331.055 229.584 332.519 226.896 332.519C223.776 332.519 221.688 330.239 221.688 326.927C221.688 323.687 223.848 321.311 226.848 321.311C229.992 321.311 231.72 323.495 231.72 326.639V327.551H224.568C224.664 329.159 225.576 330.119 226.896 330.119C227.904 330.119 228.648 329.687 228.888 328.775ZM226.872 323.735C225.72 323.735 224.904 324.431 224.64 325.751H228.792C228.768 324.623 228.096 323.735 226.872 323.735ZM236.586 331.391V336.239H233.61V321.551H236.586V322.439C237.066 321.863 238.122 321.311 239.274 321.311C242.394 321.311 244.17 323.903 244.17 326.927C244.17 329.951 242.394 332.519 239.274 332.519C238.122 332.519 237.066 331.967 236.586 331.391ZM236.586 325.151V328.679C236.946 329.423 237.738 329.927 238.602 329.927C240.21 329.927 241.17 328.631 241.17 326.927C241.17 325.199 240.21 323.903 238.602 323.903C237.714 323.903 236.946 324.431 236.586 325.151ZM246.703 329.039V323.951H245.071V321.551H246.703V318.647H249.655V321.551H252.007V323.951H249.655V328.655C249.655 329.495 250.111 329.879 250.879 329.879C251.335 329.879 251.839 329.735 252.175 329.519V332.159C251.767 332.375 251.047 332.495 250.255 332.495C248.071 332.495 246.703 331.415 246.703 329.039ZM254.328 332.279V316.679H257.304V322.535C257.88 321.863 258.936 321.311 260.184 321.311C262.608 321.311 263.976 322.895 263.976 325.271V332.279H261V325.895C261 324.767 260.424 323.999 259.248 323.999C258.336 323.999 257.544 324.551 257.304 325.487V332.279H254.328ZM270.956 325.487C270.956 321.023 273.5 317.663 277.556 316.679V319.679C275.372 320.279 273.788 322.343 273.788 325.487C273.788 328.631 275.372 330.695 277.556 331.295V334.295C273.5 333.311 270.956 329.951 270.956 325.487ZM289.056 321.551L285.384 326.735L289.296 332.279H286.008L283.704 328.919L281.376 332.279H278.256L282.12 326.807L278.472 321.551H281.76L283.824 324.599L285.936 321.551H289.056ZM296.318 317.543V332.279H293.318V321.047L289.886 322.751V319.751L294.374 317.543H296.318ZM304.327 332.519C300.871 332.519 298.519 329.399 298.519 324.911C298.519 320.423 300.871 317.303 304.327 317.303C307.783 317.303 310.135 320.423 310.135 324.911C310.135 329.399 307.783 332.519 304.327 332.519ZM304.327 320.039C302.335 320.039 301.519 322.175 301.519 324.911C301.519 327.647 302.335 329.783 304.327 329.783C306.295 329.783 307.135 327.647 307.135 324.911C307.135 322.175 306.295 320.039 304.327 320.039ZM317.476 332.519C314.02 332.519 311.668 329.399 311.668 324.911C311.668 320.423 314.02 317.303 317.476 317.303C320.932 317.303 323.284 320.423 323.284 324.911C323.284 329.399 320.932 332.519 317.476 332.519ZM317.476 320.039C315.484 320.039 314.668 322.175 314.668 324.911C314.668 327.647 315.484 329.783 317.476 329.783C319.444 329.783 320.284 327.647 320.284 324.911C320.284 322.175 319.444 320.039 317.476 320.039ZM330.624 332.519C327.168 332.519 324.816 329.399 324.816 324.911C324.816 320.423 327.168 317.303 330.624 317.303C334.08 317.303 336.432 320.423 336.432 324.911C336.432 329.399 334.08 332.519 330.624 332.519ZM330.624 320.039C328.632 320.039 327.816 322.175 327.816 324.911C327.816 327.647 328.632 329.783 330.624 329.783C332.592 329.783 333.432 327.647 333.432 324.911C333.432 322.175 332.592 320.039 330.624 320.039ZM344.277 325.487C344.277 329.951 341.733 333.311 337.677 334.295V331.295C339.861 330.695 341.445 328.631 341.445 325.487C341.445 322.343 339.861 320.279 337.677 319.679V316.679C341.733 317.663 344.277 321.023 344.277 325.487Z" fill="black"/>
<circle cx="434.813" cy="16.1599" r="6.81274" fill="#C82A1D"/>
<circle cx="434.813" cy="43.7854" r="6.81274" fill="#803230"/>
<circle cx="434.813" cy="71.4109" r="6.81274" fill="#ABF65F"/>
<circle cx="434.813" cy="99.0364" r="6.81274" fill="#AEF8FC"/>
<circle cx="434.813" cy="126.662" r="6.81274" fill="#000C70"/>
<circle cx="434.813" cy="154.287" r="6.81274" fill="#E4A546"/>
<circle cx="434.813" cy="181.913" r="6.81274" fill="#651978"/>
<circle cx="434.813" cy="209.538" r="6.81274" fill="#E5C0C6"/>
<circle cx="434.813" cy="237.164" r="6.81274" fill="#CF8773"/>
<path d="M449.696 8.23666V22.9727H447.272V11.2367L443.816 12.9887V10.4687L448.232 8.23666H449.696ZM457.938 23.2127C454.602 23.2127 452.37 20.0927 452.37 15.6047C452.37 11.1167 454.602 7.99666 457.938 7.99666C461.274 7.99666 463.506 11.1167 463.506 15.6047C463.506 20.0927 461.274 23.2127 457.938 23.2127ZM457.938 10.2527C455.754 10.2527 454.794 12.5087 454.794 15.6047C454.794 18.7007 455.754 20.9567 457.938 20.9567C460.098 20.9567 461.058 18.7007 461.058 15.6047C461.058 12.5087 460.098 10.2527 457.938 10.2527ZM475.203 12.3167L471.507 17.4047L475.491 22.9727H472.779L470.139 19.2047L467.475 22.9727H464.907L468.867 17.5007L465.195 12.3167H467.907L470.235 15.6767L472.635 12.3167H475.203ZM476.209 17.7647V15.5807H481.993V17.7647H476.209ZM487.624 16.4927V14.4047H488.488C489.904 14.4047 490.96 13.6607 490.96 12.2687C490.96 11.0927 490.12 10.1567 488.704 10.1567C487.144 10.1567 486.304 11.1647 486.208 12.4607H483.76C484.072 9.89266 485.92 7.99666 488.68 7.99666C491.584 7.99666 493.288 9.72466 493.288 12.1247C493.288 13.6607 492.544 14.9327 491.368 15.4367C492.88 16.0607 493.576 17.4047 493.576 18.7727C493.576 21.2687 491.752 23.2127 488.704 23.2127C485.68 23.2127 483.592 21.3167 483.424 18.5567H485.848C486.016 20.0447 486.976 21.0767 488.68 21.0767C490.168 21.0767 491.224 20.1647 491.224 18.7967C491.224 17.3807 490.12 16.4927 488.56 16.4927H487.624ZM495.206 13.7327L496.862 11.1407C496.094 11.0207 495.518 10.4687 495.518 9.60466C495.518 8.66866 496.238 7.99666 497.15 7.99666C498.062 7.99666 498.782 8.62066 498.782 9.79666C498.782 10.4207 498.47 11.1407 498.086 11.7167L496.766 13.7327H495.206Z" fill="black"/>
<path d="M449.696 35.8621V50.5981H447.272V38.8621L443.816 40.6141V38.0941L448.232 35.8621H449.696ZM457.938 50.8381C454.602 50.8381 452.37 47.7181 452.37 43.2301C452.37 38.7421 454.602 35.6221 457.938 35.6221C461.274 35.6221 463.506 38.7421 463.506 43.2301C463.506 47.7181 461.274 50.8381 457.938 50.8381ZM457.938 37.8781C455.754 37.8781 454.794 40.1341 454.794 43.2301C454.794 46.3261 455.754 48.5821 457.938 48.5821C460.098 48.5821 461.058 46.3261 461.058 43.2301C461.058 40.1341 460.098 37.8781 457.938 37.8781ZM475.203 39.9421L471.507 45.0301L475.491 50.5981H472.779L470.139 46.8301L467.475 50.5981H464.907L468.867 45.1261L465.195 39.9421H467.907L470.235 43.3021L472.635 39.9421H475.203ZM476.209 45.3901V43.2061H481.993V45.3901H476.209ZM488.992 43.0141C487.912 43.0141 487.096 43.5421 486.592 44.1661H484.696V35.8621H493V38.0701H486.736V41.6461C487.192 41.2861 488.128 40.8781 489.256 40.8781C492.016 40.8781 493.912 42.8941 493.912 45.8461C493.912 48.7741 491.896 50.8381 489.04 50.8381C486.112 50.8381 484.12 49.0141 483.88 46.1821H486.304C486.496 47.6701 487.384 48.6781 489.04 48.6781C490.6 48.6781 491.584 47.5021 491.584 45.8461C491.584 44.1901 490.6 43.0141 488.992 43.0141ZM495.253 41.3581L496.909 38.7661C496.141 38.6461 495.565 38.0941 495.565 37.2301C495.565 36.2941 496.285 35.6221 497.197 35.6221C498.109 35.6221 498.829 36.2461 498.829 37.4221C498.829 38.0461 498.517 38.7661 498.133 39.3421L496.813 41.3581H495.253Z" fill="black"/>
<path d="M449.696 63.4871V78.2231H447.272V66.4871L443.816 68.2391V65.7191L448.232 63.4871H449.696ZM457.938 78.4631C454.602 78.4631 452.37 75.3431 452.37 70.8551C452.37 66.3671 454.602 63.2471 457.938 63.2471C461.274 63.2471 463.506 66.3671 463.506 70.8551C463.506 75.3431 461.274 78.4631 457.938 78.4631ZM457.938 65.5031C455.754 65.5031 454.794 67.7591 454.794 70.8551C454.794 73.9511 455.754 76.2071 457.938 76.2071C460.098 76.2071 461.058 73.9511 461.058 70.8551C461.058 67.7591 460.098 65.5031 457.938 65.5031ZM475.203 67.5671L471.507 72.6551L475.491 78.2231H472.779L470.139 74.4551L467.475 78.2231H464.907L468.867 72.7511L465.195 67.5671H467.907L470.235 70.9271L472.635 67.5671H475.203ZM476.209 73.0151V70.8311H481.993V73.0151H476.209ZM487.288 78.2231H484.792V63.4871H494.2V65.6951L487.288 65.6951V70.0631L493.744 70.0631V72.2471L487.288 72.2471V78.2231ZM501.147 72.2471H499.371V78.2231L496.875 78.2231V63.4871H502.563C505.611 63.4871 507.579 65.0231 507.579 67.9031C507.579 70.3751 506.139 71.7911 503.811 72.1511L508.083 78.2231H505.251L501.147 72.2471ZM499.371 65.6471V70.1591H502.515C504.171 70.1591 505.107 69.2711 505.107 67.9031C505.107 66.5351 504.171 65.6471 502.515 65.6471H499.371ZM516.075 72.7271H512.883V78.2231H510.387V63.4871H516.075C519.123 63.4871 521.115 65.0711 521.115 68.1191C521.115 71.1191 519.123 72.7271 516.075 72.7271ZM518.643 68.1191C518.643 66.6551 517.755 65.6471 516.027 65.6471H512.883V70.5671H516.027C517.755 70.5671 518.643 69.5351 518.643 68.1191Z" fill="black"/>
<path d="M453.224 98.2401C454.616 98.6961 455.624 100.064 455.624 101.624C455.624 104.384 453.704 105.848 450.632 105.848H444.992V91.1121H450.152C453.224 91.1121 455.144 92.4801 455.144 95.1201C455.144 96.7041 454.304 97.8561 453.224 98.2401ZM447.416 97.3041H450.128C451.832 97.3041 452.744 96.6561 452.744 95.2641C452.744 93.8721 451.832 93.2721 450.128 93.2721H447.416V97.3041ZM447.416 99.3681V103.688H450.584C452.264 103.688 453.176 102.848 453.176 101.528C453.176 100.184 452.264 99.3681 450.584 99.3681H447.416ZM460.907 103.616H463.283C466.379 103.616 468.035 101.624 468.035 98.4801C468.035 95.3121 466.379 93.3201 463.283 93.3201H460.907V103.616ZM458.411 105.848V91.1121H463.379C467.723 91.1121 470.531 93.9921 470.531 98.4801C470.531 102.968 467.723 105.848 463.379 105.848H458.411Z" fill="black"/>
<path d="M447.488 133.473H444.992V118.737H454.4V120.945H447.488V125.313H453.944V127.497H447.488V133.473ZM459.331 117.873V133.473H456.931V117.873H459.331ZM471.354 122.817V133.473H468.954V132.465C468.378 133.137 467.346 133.713 466.098 133.713C463.674 133.713 462.354 132.105 462.354 129.753V122.817H464.754V129.345C464.754 130.665 465.378 131.529 466.746 131.529C467.778 131.529 468.69 130.881 468.954 129.825V122.817H471.354ZM481.11 130.161H483.318C482.958 132.273 481.398 133.713 478.83 133.713C475.854 133.713 473.79 131.457 473.79 128.169C473.79 124.977 475.878 122.577 478.782 122.577C481.782 122.577 483.414 124.713 483.414 127.833V128.697H476.142C476.214 130.569 477.294 131.697 478.83 131.697C479.982 131.697 480.846 131.193 481.11 130.161ZM478.806 124.593C477.486 124.593 476.502 125.409 476.214 126.945H481.038C481.014 125.649 480.27 124.593 478.806 124.593ZM485.82 133.473V122.817H488.22V123.825C488.796 123.153 489.852 122.577 491.1 122.577C493.524 122.577 494.868 124.185 494.868 126.537V133.473H492.468V126.945C492.468 125.625 491.82 124.761 490.452 124.761C489.42 124.761 488.484 125.409 488.22 126.465V133.473H485.82ZM498.455 130.593V124.809H496.775V122.817H498.455V119.961H500.855V122.817H503.255V124.809H500.855V130.329C500.855 131.193 501.335 131.577 502.127 131.577C502.607 131.577 503.159 131.385 503.495 131.145V133.329C503.087 133.569 502.439 133.713 501.695 133.713C499.799 133.713 498.455 132.705 498.455 130.593Z" fill="black"/>
<path d="M454.904 146.364H457.4V161.1H454.904V154.644H447.488V161.1H444.992V146.364H447.488V152.436H454.904V146.364ZM470.112 155.772C470.112 159.036 468.048 161.34 465.048 161.34C462.048 161.34 459.984 159.036 459.984 155.772C459.984 152.508 462.048 150.204 465.048 150.204C468.048 150.204 470.112 152.508 470.112 155.772ZM467.712 155.772C467.712 153.756 466.776 152.268 465.048 152.268C463.32 152.268 462.384 153.756 462.384 155.772C462.384 157.788 463.32 159.276 465.048 159.276C466.776 159.276 467.712 157.788 467.712 155.772ZM472.553 161.1V150.444H474.953V151.452C475.529 150.78 476.585 150.204 477.833 150.204C480.257 150.204 481.601 151.812 481.601 154.164V161.1H479.201V154.572C479.201 153.252 478.553 152.388 477.185 152.388C476.153 152.388 475.217 153.036 474.953 154.092V161.1H472.553ZM491.211 157.788H493.419C493.059 159.9 491.499 161.34 488.931 161.34C485.955 161.34 483.891 159.084 483.891 155.796C483.891 152.604 485.979 150.204 488.883 150.204C491.883 150.204 493.515 152.34 493.515 155.46V156.324H486.243C486.315 158.196 487.395 159.324 488.931 159.324C490.083 159.324 490.947 158.82 491.211 157.788ZM488.907 152.22C487.587 152.22 486.603 153.036 486.315 154.572H491.139C491.115 153.276 490.371 152.22 488.907 152.22ZM499.575 165.18H497.247L498.759 161.388L494.631 150.444H497.199L499.983 158.292L502.719 150.444H505.191L499.575 165.18ZM506.323 155.772C506.323 152.46 508.411 150.204 511.291 150.204C513.835 150.204 515.443 151.644 515.755 153.78H513.355C513.163 152.82 512.371 152.292 511.315 152.292C509.707 152.292 508.723 153.756 508.723 155.772C508.723 157.788 509.707 159.252 511.315 159.252C512.371 159.252 513.163 158.724 513.355 157.764H515.755C515.443 159.9 513.835 161.34 511.291 161.34C508.411 161.34 506.323 159.084 506.323 155.772ZM527.479 155.772C527.479 159.036 525.415 161.34 522.415 161.34C519.415 161.34 517.351 159.036 517.351 155.772C517.351 152.508 519.415 150.204 522.415 150.204C525.415 150.204 527.479 152.508 527.479 155.772ZM525.079 155.772C525.079 153.756 524.143 152.268 522.415 152.268C520.687 152.268 519.751 153.756 519.751 155.772C519.751 157.788 520.687 159.276 522.415 159.276C524.143 159.276 525.079 157.788 525.079 155.772ZM537.792 151.62C538.536 150.756 539.52 150.204 540.96 150.204C543.144 150.204 544.416 151.74 544.416 154.164V161.1L542.016 161.1V154.548C542.016 153.228 541.44 152.364 540.264 152.364C539.4 152.364 538.584 152.892 538.368 153.948V161.1H535.968V154.548C535.968 153.228 535.392 152.364 534.216 152.364C533.352 152.364 532.536 152.892 532.32 153.948V161.1H529.92V150.444H532.32V151.332C532.824 150.66 533.784 150.204 534.984 150.204C536.184 150.204 537.24 150.804 537.792 151.62ZM549.84 160.188V161.1H547.44V145.5H549.84V151.356C550.32 150.756 551.376 150.204 552.552 150.204C555.672 150.204 557.496 152.724 557.496 155.772C557.496 158.844 555.672 161.34 552.552 161.34C551.376 161.34 550.32 160.788 549.84 160.188ZM549.84 153.756V157.788C550.248 158.628 551.16 159.204 552.144 159.204C553.992 159.204 555.096 157.74 555.096 155.772C555.096 153.804 553.992 152.34 552.144 152.34C551.16 152.34 550.248 152.916 549.84 153.756Z" fill="black"/>
<path d="M450.68 183.283H447.488V188.779H444.992V174.043H450.68C453.728 174.043 455.72 175.627 455.72 178.675C455.72 181.675 453.728 183.283 450.68 183.283ZM453.248 178.675C453.248 177.211 452.36 176.203 450.632 176.203H447.488V181.123H450.632C452.36 181.123 453.248 180.091 453.248 178.675ZM465.982 188.779H463.702V188.179C463.342 188.539 462.262 188.971 461.062 188.971C458.878 188.971 457.078 187.675 457.078 185.491C457.078 183.475 458.878 182.059 461.23 182.059C462.19 182.059 463.27 182.395 463.702 182.707V181.843C463.702 180.763 463.03 179.923 461.662 179.923C460.702 179.923 460.102 180.331 459.838 181.075H457.534C457.846 179.251 459.526 177.883 461.71 177.883C464.398 177.883 465.982 179.371 465.982 181.795V188.779ZM463.702 185.947V185.059C463.438 184.387 462.478 183.979 461.518 183.979C460.438 183.979 459.31 184.435 459.31 185.491C459.31 186.571 460.438 187.027 461.518 187.027C462.478 187.027 463.438 186.619 463.702 185.947ZM474.965 178.075V180.547C474.629 180.307 474.053 180.187 473.549 180.187C472.565 180.187 471.653 180.739 471.413 181.891V188.779H469.013V178.123H471.413V179.227C471.821 178.435 472.757 177.883 473.789 177.883C474.317 177.883 474.797 177.979 474.965 178.075ZM476.509 185.707H478.957C479.221 186.595 480.013 187.051 481.069 187.051C482.173 187.051 482.893 186.619 482.893 185.779C482.893 185.203 482.533 184.891 481.645 184.675L479.437 184.147C477.925 183.787 476.797 182.971 476.797 181.219C476.797 179.299 478.501 177.883 480.829 177.883C483.325 177.883 484.741 179.083 485.101 181.027H482.749C482.533 180.331 481.909 179.851 480.805 179.851C479.965 179.851 479.101 180.235 479.101 181.075C479.101 181.555 479.437 181.867 480.205 182.059L482.461 182.587C484.285 183.019 485.197 184.051 485.197 185.611C485.197 187.723 483.445 189.019 481.045 189.019C478.549 189.019 476.821 187.771 476.509 185.707ZM494.318 185.467H496.526C496.166 187.579 494.606 189.019 492.038 189.019C489.062 189.019 486.998 186.763 486.998 183.475C486.998 180.283 489.086 177.883 491.99 177.883C494.99 177.883 496.622 180.019 496.622 183.139V184.003H489.35C489.422 185.875 490.502 187.003 492.038 187.003C493.19 187.003 494.054 186.499 494.318 185.467ZM492.014 179.899C490.694 179.899 489.71 180.715 489.422 182.251H494.246C494.222 180.955 493.478 179.899 492.014 179.899Z" fill="black"/>
<path d="M443.84 212.324H446.384C446.864 213.836 448.112 214.532 449.72 214.532C451.448 214.532 452.576 213.716 452.576 212.348C452.576 211.316 451.976 210.716 450.44 210.356L447.944 209.756C445.904 209.276 444.272 208.172 444.272 205.796C444.272 203.3 446.312 201.428 449.288 201.428C452.48 201.428 454.352 203.06 454.88 205.508H452.384C452 204.404 451.064 203.54 449.312 203.54C447.728 203.54 446.648 204.356 446.648 205.58C446.648 206.564 447.272 207.188 448.592 207.5L451.16 208.1C453.464 208.628 454.976 209.972 454.976 212.18C454.976 214.94 452.768 216.644 449.72 216.644C446.6 216.644 444.368 215.06 443.84 212.324ZM456.866 211.076C456.866 207.764 458.954 205.508 461.834 205.508C464.378 205.508 465.986 206.948 466.298 209.084H463.898C463.706 208.124 462.914 207.596 461.858 207.596C460.25 207.596 459.266 209.06 459.266 211.076C459.266 213.092 460.25 214.556 461.858 214.556C462.914 214.556 463.706 214.028 463.898 213.068H466.298C465.986 215.204 464.378 216.644 461.834 216.644C458.954 216.644 456.866 214.388 456.866 211.076ZM476.846 216.404H474.566V215.804C474.206 216.164 473.126 216.596 471.926 216.596C469.742 216.596 467.942 215.3 467.942 213.116C467.942 211.1 469.742 209.684 472.094 209.684C473.054 209.684 474.134 210.02 474.566 210.332V209.468C474.566 208.388 473.894 207.548 472.526 207.548C471.566 207.548 470.966 207.956 470.702 208.7H468.398C468.71 206.876 470.39 205.508 472.574 205.508C475.262 205.508 476.846 206.996 476.846 209.42V216.404ZM474.566 213.572V212.684C474.302 212.012 473.342 211.604 472.382 211.604C471.302 211.604 470.174 212.06 470.174 213.116C470.174 214.196 471.302 214.652 472.382 214.652C473.342 214.652 474.302 214.244 474.566 213.572ZM482.278 200.804V216.404H479.878V200.804H482.278ZM492.021 213.092H494.229C493.869 215.204 492.309 216.644 489.741 216.644C486.765 216.644 484.701 214.388 484.701 211.1C484.701 207.908 486.789 205.508 489.693 205.508C492.693 205.508 494.325 207.644 494.325 210.764V211.628H487.053C487.125 213.5 488.205 214.628 489.741 214.628C490.893 214.628 491.757 214.124 492.021 213.092ZM489.717 207.524C488.397 207.524 487.413 208.34 487.125 209.876H491.949C491.925 208.58 491.181 207.524 489.717 207.524Z" fill="black"/>
<path d="M443.84 239.949H446.384C446.864 241.461 448.112 242.157 449.72 242.157C451.448 242.157 452.576 241.341 452.576 239.973C452.576 238.941 451.976 238.341 450.44 237.981L447.944 237.381C445.904 236.901 444.272 235.797 444.272 233.421C444.272 230.925 446.312 229.053 449.288 229.053C452.48 229.053 454.352 230.685 454.88 233.133H452.384C452 232.029 451.064 231.165 449.312 231.165C447.728 231.165 446.648 231.981 446.648 233.205C446.648 234.189 447.272 234.813 448.592 235.125L451.16 235.725C453.464 236.253 454.976 237.597 454.976 239.805C454.976 242.565 452.768 244.269 449.72 244.269C446.6 244.269 444.368 242.685 443.84 239.949ZM456.866 238.701C456.866 235.389 458.954 233.133 461.834 233.133C464.378 233.133 465.986 234.573 466.298 236.709H463.898C463.706 235.749 462.914 235.221 461.858 235.221C460.25 235.221 459.266 236.685 459.266 238.701C459.266 240.717 460.25 242.181 461.858 242.181C462.914 242.181 463.706 241.653 463.898 240.693H466.298C465.986 242.829 464.378 244.269 461.834 244.269C458.954 244.269 456.866 242.013 456.866 238.701ZM471.038 233.373V244.029H468.638V233.373H471.038ZM471.326 230.157C471.326 230.973 470.63 231.621 469.838 231.621C469.046 231.621 468.35 230.973 468.35 230.157C468.35 229.341 469.046 228.693 469.838 228.693C470.63 228.693 471.326 229.341 471.326 230.157ZM476.606 243.117V248.109H474.206V233.373H476.606V234.285C477.086 233.685 478.142 233.133 479.318 233.133C482.438 233.133 484.262 235.725 484.262 238.701C484.262 241.677 482.438 244.269 479.318 244.269C478.142 244.269 477.086 243.717 476.606 243.117ZM476.606 236.685V240.717C477.014 241.557 477.926 242.133 478.91 242.133C480.758 242.133 481.862 240.669 481.862 238.701C481.862 236.733 480.758 235.269 478.91 235.269C477.926 235.269 477.014 235.845 476.606 236.685ZM489.087 233.373V244.029H486.687V233.373H489.087ZM489.375 230.157C489.375 230.973 488.679 231.621 487.887 231.621C487.095 231.621 486.399 230.973 486.399 230.157C486.399 229.341 487.095 228.693 487.887 228.693C488.679 228.693 489.375 229.341 489.375 230.157ZM501.638 238.701C501.638 241.965 499.574 244.269 496.574 244.269C493.574 244.269 491.51 241.965 491.51 238.701C491.51 235.437 493.574 233.133 496.574 233.133C499.574 233.133 501.638 235.437 501.638 238.701ZM499.238 238.701C499.238 236.685 498.302 235.197 496.574 235.197C494.846 235.197 493.91 236.685 493.91 238.701C493.91 240.717 494.846 242.205 496.574 242.205C498.302 242.205 499.238 240.717 499.238 238.701Z" fill="black"/>
<line x1="119.365" y1="274.331" x2="119.365" y2="288.452" stroke="black" stroke-width="1.5"/>
<line x1="250.447" y1="274.331" x2="250.447" y2="288.452" stroke="black" stroke-width="1.5"/>
<line x1="133.551" y1="274.331" x2="133.551" y2="288.452" stroke="black" stroke-width="1.5"/>
<line x1="264.633" y1="274.331" x2="264.633" y2="288.452" stroke="black" stroke-width="1.5"/>
<line x1="148.213" y1="274.331" x2="148.213" y2="288.452" stroke="black" stroke-width="1.5"/>
<line x1="279.295" y1="274.331" x2="279.295" y2="288.452" stroke="black" stroke-width="1.5"/>
<line x1="162.78" y1="274.331" x2="162.78" y2="288.452" stroke="black" stroke-width="1.5"/>
<line x1="293.862" y1="274.331" x2="293.862" y2="288.452" stroke="black" stroke-width="1.5"/>
<line x1="177.143" y1="274.331" x2="177.143" y2="288.452" stroke="black" stroke-width="1.5"/>
<line x1="308.225" y1="274.331" x2="308.225" y2="288.452" stroke="black" stroke-width="1.5"/>
<line x1="191.754" y1="274.331" x2="191.754" y2="288.452" stroke="black" stroke-width="1.5"/>
<line x1="322.836" y1="274.331" x2="322.836" y2="288.452" stroke="black" stroke-width="1.5"/>
<line x1="206.861" y1="274.331" x2="206.861" y2="288.452" stroke="black" stroke-width="1.5"/>
<line x1="337.943" y1="274.331" x2="337.943" y2="288.452" stroke="black" stroke-width="1.5"/>
<line x1="220.977" y1="274.331" x2="220.977" y2="288.452" stroke="black" stroke-width="1.5"/>
<line x1="352.059" y1="274.331" x2="352.059" y2="288.452" stroke="black" stroke-width="1.5"/>
<line x1="236.331" y1="274.331" x2="236.331" y2="288.452" stroke="black" stroke-width="1.5"/>
<line x1="367.413" y1="274.331" x2="367.413" y2="288.452" stroke="black" stroke-width="1.5"/>
<line x1="250.447" y1="7.43359" x2="250.447" y2="273.449" stroke="#C4CBD5" stroke-width="1.5"/>
<line x1="133.551" y1="7.43359" x2="133.551" y2="273.449" stroke="#C4CBD5" stroke-width="1.5"/>
<line x1="264.633" y1="7.43359" x2="264.633" y2="273.449" stroke="#C4CBD5" stroke-width="1.5"/>
<line x1="148.213" y1="7.43359" x2="148.213" y2="273.449" stroke="#C4CBD5" stroke-width="1.5"/>
<line x1="279.295" y1="7.43359" x2="279.295" y2="273.449" stroke="#C4CBD5" stroke-width="1.5"/>
<line x1="162.78" y1="7.43359" x2="162.78" y2="273.449" stroke="#C4CBD5" stroke-width="1.5"/>
<line x1="293.862" y1="7.43359" x2="293.862" y2="273.449" stroke="#C4CBD5" stroke-width="1.5"/>
<line x1="177.143" y1="7.43359" x2="177.143" y2="273.449" stroke="#C4CBD5" stroke-width="1.5"/>
<line x1="308.225" y1="7.43359" x2="308.225" y2="273.449" stroke="#C4CBD5" stroke-width="1.5"/>
<line x1="191.754" y1="7.43359" x2="191.754" y2="273.449" stroke="#C4CBD5" stroke-width="1.5"/>
<line x1="322.836" y1="7.43359" x2="322.836" y2="273.449" stroke="#C4CBD5" stroke-width="1.5"/>
<line x1="206.861" y1="7.43359" x2="206.861" y2="273.449" stroke="#C4CBD5" stroke-width="1.5"/>
<line x1="337.943" y1="7.43359" x2="337.943" y2="273.449" stroke="#C4CBD5" stroke-width="1.5"/>
<line x1="220.977" y1="7.43359" x2="220.977" y2="273.449" stroke="#C4CBD5" stroke-width="1.5"/>
<line x1="352.059" y1="7.43359" x2="352.059" y2="273.449" stroke="#C4CBD5" stroke-width="1.5"/>
<line x1="236.331" y1="7.43359" x2="236.331" y2="273.449" stroke="#C4CBD5" stroke-width="1.5"/>
<line x1="367.413" y1="7.43359" x2="367.413" y2="273.449" stroke="#C4CBD5" stroke-width="1.5"/>
<line x1="118.957" y1="273.871" x2="104.836" y2="273.871" stroke="black" stroke-width="1.5"/>
<line x1="118.957" y1="213.368" x2="104.836" y2="213.368" stroke="black" stroke-width="1.5"/>
<line x1="118.957" y1="152.529" x2="104.836" y2="152.529" stroke="black" stroke-width="1.5"/>
<line x1="118.957" y1="92.5293" x2="104.836" y2="92.5293" stroke="black" stroke-width="1.5"/>
<line x1="118.957" y1="32.5293" x2="104.836" y2="32.5293" stroke="black" stroke-width="1.5"/>
<line y1="-0.75" x2="255.79" y2="-0.75" transform="matrix(-1 -4.8263e-09 1.58356e-06 -1 375.14 212.618)" stroke="#C4CBD5" stroke-width="1.5"/>
<line y1="-0.75" x2="255.79" y2="-0.75" transform="matrix(-1 -4.8263e-09 1.58356e-06 -1 375.14 151.779)" stroke="#C4CBD5" stroke-width="1.5"/>
<line y1="-0.75" x2="255.79" y2="-0.75" transform="matrix(-1 -4.8263e-09 1.58356e-06 -1 375.14 91.7793)" stroke="#C4CBD5" stroke-width="1.5"/>
<line y1="-0.75" x2="255.79" y2="-0.75" transform="matrix(-1 -4.8263e-09 1.58356e-06 -1 375.14 31.7793)" stroke="#C4CBD5" stroke-width="1.5"/>
<rect x="119.348" y="7.43359" width="255.79" height="266.361" stroke="black" stroke-width="1.5"/>
<path d="M132.801 247.467C155.562 216.49 180.532 199.54 194.15 192.563C225.911 176.291 280.347 173.26 339.978 167.717" stroke="#E5C0C6" stroke-width="2.29105" stroke-linecap="round"/>
<path d="M132.801 259.353C161.038 245.889 185.795 238.808 199.3 236.397C228.732 231.141 269.24 226.75 336.045 223.856" stroke="#CF8773" stroke-width="4" stroke-linecap="round" stroke-dasharray="1 14"/>
<path d="M132.801 259.353C161.038 245.889 179.038 241.735 194.15 239.334C249.639 230.519 277.892 233.231 339.978 230.519" stroke="#CF8773" stroke-width="2.29105" stroke-linecap="round"/>
<path d="M132.801 259.353C161.038 245.889 186.106 241.821 199.783 240.738C224.141 238.808 266.105 237.361 337.25 236.638" stroke="#CF8773" stroke-width="4" stroke-linecap="round" stroke-dasharray="1 14"/>
<path d="M132.801 253.507C160.766 225.308 180.943 215.996 199.125 208.235C231.947 194.226 268.984 184.954 328.614 179.411" stroke="#000C70" stroke-width="4" stroke-linecap="round" stroke-dasharray="1 16"/>
<path d="M132.801 244.288C157.32 207.066 171.129 198.813 187.958 186.286C223.39 159.912 256.159 150.321 341.943 131.939" stroke="#651978" stroke-width="2.29105" stroke-linecap="round"/>
<path d="M133.073 257.977C156.674 239.576 164.955 233.075 188.104 224.999C263.703 198.628 315.944 197.623 363.915 191.093" stroke="#000C70" stroke-width="2.29105" stroke-linecap="round"/>
<path d="M132.801 235.699C156.111 194.664 168.262 182.856 183.791 168.75C219.128 136.653 256.159 120.582 341.943 102.2" stroke="#AEF8FC" stroke-width="2.29105" stroke-linecap="round"/>
<path d="M133.182 209.538C145.051 178.904 155.706 138.707 183.311 108.681C244.803 41.7941 284.044 40.8796 337.317 21.0234" stroke="#ABF65F" stroke-width="2.29105"/>
<path d="M133.182 231.113C145.051 200.479 157.004 181.227 185.496 152.04C224.668 111.913 282.63 98.8551 341.229 81.6575" stroke="#C82A1D" stroke-width="2"/>
<path d="M133.182 231.113C145.051 200.479 157.004 181.227 185.496 152.04C224.668 111.913 282.63 98.8551 341.229 81.6575" stroke="#C82A1D" stroke-width="4.5" stroke-linecap="round" stroke-linejoin="round" stroke-dasharray="1 11"/>
<path d="M133.182 243.507C159.264 210.194 168.545 201.666 197.837 184.896C230.649 166.111 311.657 153.611 339.171 148.904" stroke="#803230" stroke-width="2" stroke-linecap="round" stroke-linejoin="round"/>
<path d="M339.171 144.417L339.171 153.392" stroke="#803230" stroke-width="2" stroke-linecap="round"/>
<path d="M325.29 146.275L325.29 155.25" stroke="#803230" stroke-width="2" stroke-linecap="round"/>
<path d="M310.342 148.083L310.342 157.057" stroke="#803230" stroke-width="2" stroke-linecap="round"/>
<path d="M296.639 151.962L296.639 159.831" stroke="#803230" stroke-width="2" stroke-linecap="round"/>
<path d="M281.334 154.322L281.334 162.366" stroke="#803230" stroke-width="2" stroke-linecap="round"/>
<path d="M266.742 157.057L266.742 164.688" stroke="#803230" stroke-width="2" stroke-linecap="round"/>
<path d="M252.327 160.873L252.327 167.763" stroke="#803230" stroke-width="2" stroke-linecap="round"/>
<path d="M238.269 165.36L238.269 172.199" stroke="#803230" stroke-width="2" stroke-linecap="round"/>
<path d="M223.296 170.532L223.296 176.01" stroke="#803230" stroke-width="2" stroke-linecap="round"/>
<path d="M208.5 176.785L208.5 182.263" stroke="#803230" stroke-width="2" stroke-linecap="round"/>
<path d="M194.497 183.919L194.497 189.396" stroke="#803230" stroke-width="2" stroke-linecap="round"/>
<path d="M179.436 193.467L179.436 198.944" stroke="#803230" stroke-width="2" stroke-linecap="round"/>
<path d="M133.182 257.949C156.444 242.55 181.87 232.553 221.421 225.165C258.587 218.222 309.433 217.124 339.171 214.734" stroke="#E4A546" stroke-width="2" stroke-linecap="round" stroke-linejoin="round"/>
<path d="M339.171 209.318L339.171 218.292" stroke="#E4A546" stroke-width="2" stroke-linecap="round"/>
<path d="M325.29 211.176L325.29 220.15" stroke="#E4A546" stroke-width="2" stroke-linecap="round"/>
<path d="M310.342 211.972L310.342 220.947" stroke="#E4A546" stroke-width="2" stroke-linecap="round"/>
<path d="M296.639 212.618L296.639 220.486" stroke="#E4A546" stroke-width="2" stroke-linecap="round"/>
<path d="M281.334 214.734L281.334 222.778" stroke="#E4A546" stroke-width="2" stroke-linecap="round"/>
<path d="M266.742 215.663L266.742 223.294" stroke="#E4A546" stroke-width="2" stroke-linecap="round"/>
<path d="M252.327 217.501L252.327 224.392" stroke="#E4A546" stroke-width="2" stroke-linecap="round"/>
<path d="M235.269 219.026L235.269 225.865" stroke="#E4A546" stroke-width="2" stroke-linecap="round"/>
<path d="M222.045 221.765L222.045 227.242" stroke="#E4A546" stroke-width="2" stroke-linecap="round"/>
<path d="M208.5 224.874L208.5 230.351" stroke="#E4A546" stroke-width="2" stroke-linecap="round"/>
<path d="M194.497 228.375L194.497 233.852" stroke="#E4A546" stroke-width="2" stroke-linecap="round"/>
<path d="M179.436 232.969L179.436 238.446" stroke="#E4A546" stroke-width="2" stroke-linecap="round"/>
</g>
<defs>
<clipPath id="clip0_199_1018">
<rect width="584" height="337" fill="white" transform="translate(0 0.279297)"/>
</clipPath>
</defs>
</svg>
